{"title":"Prelude to War","uid":5399680,"size":2524125188,"categoryP":"video","categoryS":"movies","magnet":"?xt=urn:btih:befbe8d9bed4b8713c97f5a227134033057842a0&amp;dn=Prelude+to+War&amp;tr=udp%3A%2F%2Ftracker.openbittorrent.com%3A80&amp;tr=udp%3A%2F%2Fopen.demonii.com%3A1337&amp;tr=udp%3A%2F%2Ftracker.coppersurfer.tk%3A6969&amp;tr=udp%3A%2F%2Fexodus.desync.com%3A6969","seeders":0,"leechers":2,"uploader":"2mean2die","files":-1,"time":1267375873,"description":"Prelude to War\n\n&quot;Prelude to War,&quot; Chapter I of Frank Capra's &quot;Why We Fight&quot; series,\ndescribes World War II as a battle between the &quot;slave world&quot; of fascism\nand the &quot;free world&quot; of American liberty. In the &quot;slave world,&quot; the\nentire populations of Germany, Italy and Japan have been hoodwinked by\nmadmen, opportunists who capitalized on their people's desperation and\nweakness to rise to power. These demagogues promised revenge for past\nlosses, and in the process convinced their people to give up their\nrights and accept dictatorship. In the &quot;free world,&quot; the principles of\nequality, freedom, and liberty characterize the greatest leaders,\nembodied in the works and words of Washington, Jefferson, and Lincoln.\nThis freedom is a threat to the fascist dictators of the Axis powers,\nwho claim that democracy is weak and must be eradicated. The film\nclaims that the ultimate goal of the Axis powers is to enslave the\nnations of the &quot;free world,&quot; a desire made manifest in the Japanese\ninvasion of Manchuria and Mussolini's destruction of Ethiopia.\n\n\nGeneral\n\nComplete name                    : PreludeToWar\nFormat                           : MPEG-PS\nFile size                        : 2.35 GiB\nDuration                         : 52mn 21s\nOverall bit rate                 : 6 427 Kbps\n\nVideo\nID                               : 224 (0xE0)\nFormat                           : MPEG Video\nFormat version                   : Version 2\nFormat profile                   : Main@Main\nFormat settings, BVOP            : Yes\nFormat settings, Matrix          : Default\nDuration                         : 52mn 21s\nBit rate mode                    : Variable\nBit rate                         : 5 980 Kbps\nNominal bit rate                 : 7 847 Kbps\nWidth                            : 720 pixels\nHeight                           : 480 pixels\nDisplay aspect ratio             : 4:3\nFrame rate                       : 29.970 fps\nStandard                         : NTSC\nResolution                       : 8 bits\nColorimetry                      : 4:2:0\nScan type                        : Interlaced\nScan order                       : Top Field First\nBits/(Pixel*Frame)               : 0.577\nStream size                      : 2.19 GiB (93%)\n\nAudio\nID                               : 128 (0x80)\nFormat                           : AC-3\nFormat/Info                      : Audio Coding 3\nDuration                         : 52mn 21s\nBit rate mode                    : Constant\nBit rate                         : 192 Kbps\nChannel(s)                       : 2 channels\nChannel positions                : L R\nSampling rate                    : 48.0 KHz\nVideo delay                      : -66ms\nStream size                      : 71.9 MiB (3%)\n","torrent":{"xt":"urn:btih:befbe8d9bed4b8713c97f5a227134033057842a0","amp;dn":"Prelude+to+War","amp;tr":["udp%3A%2F%2Ftracker.openbittorrent.com%3A80","udp%3A%2F%2Fopen.demonii.com%3A1337","udp%3A%2F%2Ftracker.coppersurfer.tk%3A6969","udp%3A%2F%2Fexodus.desync.com%3A6969"],"infoHash":"befbe8d9bed4b8713c97f5a227134033057842a0","infoHashBuffer":{"type":"Buffer","data":[190,251,232,217,190,212,184,113,60,151,245,162,39,19,64,51,5,120,66,160]},"announce":[],"urlList":[]}}